<svg xmlns="http://www.w3.org/2000/svg" viewBox="0 0 200 200" width="200" height="200" role="img" aria-label="hit the target">
  <defs>
    <linearGradient id="cl-blob" x1="0" y1="0" x2="1" y2="1"><stop offset="0" stop-color="#eef3ff"/><stop offset="1" stop-color="#e1e9ff"/></linearGradient>
    <linearGradient id="cl-g" x1="0" y1="0" x2="1" y2="1"><stop offset="0" stop-color="#3b6cff"/><stop offset="1" stop-color="#7a5cff"/></linearGradient>
    <filter id="cl-sh" x="-30%" y="-30%" width="160%" height="160%"><feDropShadow dx="0" dy="6" stdDeviation="6" flood-color="#26336a" flood-opacity="0.16"/></filter>
  </defs>
  <rect x="8" y="8" width="184" height="184" rx="24" fill="url(#cl-blob)" stroke="#dde6fa" stroke-width="1.5"/>
  <ellipse cx="100" cy="166" rx="48" ry="9" fill="#26336a" opacity="0.12"/>
  <g filter="url(#cl-sh)">
    <circle cx="100" cy="104" r="58" fill="#ffffff"/>
  </g>
  <circle cx="100" cy="104" r="58" fill="none" stroke="#dbe4ff" stroke-width="6"/>
  <circle cx="100" cy="104" r="40" fill="none" stroke="#b9c9ff" stroke-width="6"/>
  <circle cx="100" cy="104" r="22" fill="#eef2ff"/>
  <circle cx="100" cy="104" r="9" fill="url(#cl-g)"/>
  <circle cx="100" cy="104" r="12" fill="none" stroke="url(#cl-g)" stroke-width="5" opacity="0">
    <animate attributeName="r" values="12;12;24;48;48" keyTimes="0;0.45;0.5;0.72;1" dur="3s" repeatCount="indefinite"/>
    <animate attributeName="opacity" values="0;0;0.7;0;0" keyTimes="0;0.45;0.5;0.72;1" dur="3s" repeatCount="indefinite"/>
  </circle>
  <g>
    <line x1="100" y1="104" x2="142" y2="62" stroke="#3b6cff" stroke-width="3.5" stroke-linecap="round"/>
    <path d="M100 104 L116 101 M100 104 L103 88" fill="none" stroke="#3b6cff" stroke-width="3.5" stroke-linecap="round"/>
    <path d="M142 62 L155 61 M142 62 L143 48" fill="none" stroke="#7a5cff" stroke-width="3.5" stroke-linecap="round"/>
    <animateTransform attributeName="transform" type="translate" values="68 -68;0 0;0 0;68 -68" keyTimes="0;0.45;0.85;1" dur="3s" repeatCount="indefinite"/>
    <animate attributeName="opacity" values="0;1;1;1;0" keyTimes="0;0.12;0.45;0.85;1" dur="3s" repeatCount="indefinite"/>
  </g>
  <g fill="#f5a524">
    <rect x="44" y="48" width="7" height="7" rx="1.5" transform="rotate(20 47 51)">
      <animate attributeName="opacity" values="0.3;1;0.3" dur="2.2s" repeatCount="indefinite"/>
    </rect>
    <rect x="158" y="120" width="7" height="7" rx="1.5" transform="rotate(-15 161 123)">
      <animate attributeName="opacity" values="1;0.3;1" dur="2.6s" repeatCount="indefinite"/>
    </rect>
  </g>
  <g fill="#7a5cff">
    <path d="M50 120 Q51 114 57 113 Q51 112 50 106 Q49 112 43 113 Q49 114 50 120 Z">
      <animate attributeName="opacity" values="1;0.2;1" dur="2.4s" repeatCount="indefinite"/>
    </path>
    <path d="M156 56 Q157 50 163 49 Q157 48 156 42 Q155 48 149 49 Q155 50 156 56 Z">
      <animate attributeName="opacity" values="0.3;1;0.3" dur="2.8s" repeatCount="indefinite"/>
    </path>
  </g>
</svg>
