<svg xmlns="http://www.w3.org/2000/svg" viewBox="0 0 240 180" width="240" height="180" role="img" aria-label="code review">
  <defs>
    <linearGradient id="rv-blob" x1="0" y1="0" x2="1" y2="1"><stop offset="0" stop-color="#eef3ff"/><stop offset="1" stop-color="#e1e9ff"/></linearGradient>
    <filter id="rv-sh" x="-30%" y="-30%" width="160%" height="160%"><feDropShadow dx="0" dy="5" stdDeviation="5" flood-color="#26336a" flood-opacity="0.15"/></filter>
  </defs>
  <rect x="8" y="8" width="224" height="164" rx="22" fill="url(#rv-blob)" stroke="#dde6fa" stroke-width="1.5"/>
  <g filter="url(#rv-sh)">
    <rect x="34" y="42" width="150" height="100" rx="12" fill="#ffffff"/>
  </g>
  <circle cx="48" cy="55" r="3" fill="#ff6b6b"/>
  <circle cx="60" cy="55" r="3" fill="#ffc145"/>
  <circle cx="72" cy="55" r="3" fill="#2fd07a"/>
  <rect x="86" y="51" width="86" height="8" rx="4" fill="#e6ebf6"/>
  <rect x="50" y="74" width="60" height="7" rx="3.5" fill="#b9c9ff"/>
  <rect x="50" y="88" width="84" height="7" rx="3.5" fill="#dde3ef"/>
  <rect x="62" y="102" width="64" height="7" rx="3.5" fill="#dde3ef"/>
  <rect x="62" y="116" width="44" height="7" rx="3.5" fill="#dde3ef"/>
  <rect x="50" y="130" width="74" height="7" rx="3.5" fill="#b9c9ff"/>
  <g filter="url(#rv-sh)">
    <rect x="176" y="54" width="48" height="56" rx="10" fill="#ffffff"/>
    <animateTransform attributeName="transform" type="translate" values="0 0;0 -4;0 0" dur="3s" repeatCount="indefinite"/>
  </g>
  <g>
    <rect x="184" y="64" width="11" height="11" rx="3" fill="#e7f7ef" stroke="#1aaf6c" stroke-width="2"/>
    <path d="M186 70 l3 3 l5 -6" fill="none" stroke="#1aaf6c" stroke-width="2" stroke-linecap="round" stroke-linejoin="round"/>
    <rect x="200" y="67" width="18" height="5" rx="2.5" fill="#cdd9f7"/>
    <rect x="184" y="86" width="11" height="11" rx="3" fill="#e7f7ef" stroke="#1aaf6c" stroke-width="2"/>
    <path d="M186 92 l3 3 l5 -6" fill="none" stroke="#1aaf6c" stroke-width="2" stroke-linecap="round" stroke-linejoin="round"/>
    <rect x="200" y="89" width="18" height="5" rx="2.5" fill="#cdd9f7"/>
    <animateTransform attributeName="transform" type="translate" values="0 0;0 -4;0 0" dur="3s" repeatCount="indefinite"/>
  </g>
  <g>
    <circle cx="0" cy="0" r="19" fill="#7a5cff" fill-opacity="0.12" stroke="#3b6cff" stroke-width="3.5"/>
    <line x1="13" y1="13" x2="27" y2="27" stroke="#3b6cff" stroke-width="5" stroke-linecap="round"/>
    <animateMotion dur="5s" repeatCount="indefinite" path="M70 80 L150 96 L100 116 L80 132 L120 130 L70 80"/>
  </g>
</svg>
