<svg xmlns="http://www.w3.org/2000/svg" viewBox="0 0 220 190" width="220" height="190" role="img" aria-label="risk control before launch">
  <defs>
    <linearGradient id="sh-blob" x1="0" y1="0" x2="1" y2="1"><stop offset="0" stop-color="#eef3ff"/><stop offset="1" stop-color="#e1e9ff"/></linearGradient>
    <linearGradient id="sh-face" x1="0" y1="0" x2="1" y2="1"><stop offset="0" stop-color="#dfe8ff"/><stop offset="1" stop-color="#cbd8ff"/></linearGradient>
    <linearGradient id="sh-lock" x1="0" y1="0" x2="0" y2="1"><stop offset="0" stop-color="#3b6cff"/><stop offset="1" stop-color="#7a5cff"/></linearGradient>
    <filter id="sh-sh" x="-30%" y="-30%" width="160%" height="160%"><feDropShadow dx="0" dy="5" stdDeviation="5" flood-color="#26336a" flood-opacity="0.16"/></filter>
  </defs>
  <rect x="8" y="8" width="204" height="174" rx="22" fill="url(#sh-blob)" stroke="#dde6fa" stroke-width="1.5"/>
  <g>
    <circle r="11" fill="#e0445a">
      <animateMotion path="M110 -8 L110 36 L172 26" dur="2.8s" repeatCount="indefinite"/>
      <animate attributeName="opacity" values="0;1;1;0;0" keyTimes="0;0.18;0.5;0.68;1" dur="2.8s" repeatCount="indefinite"/>
    </circle>
    <g>
      <rect x="108.5" y="-15" width="3" height="11" rx="1.5" fill="#ffffff"/>
      <circle cx="110" cy="0" r="2" fill="#ffffff"/>
      <animateMotion path="M110 -8 L110 36 L172 26" dur="2.8s" repeatCount="indefinite"/>
      <animate attributeName="opacity" values="0;1;1;0;0" keyTimes="0;0.18;0.5;0.68;1" dur="2.8s" repeatCount="indefinite"/>
    </g>
  </g>
  <g filter="url(#sh-sh)">
    <path d="M110 36 L166 58 V106 C166 140 139 166 110 178 C81 166 54 140 54 106 V58 Z" fill="url(#sh-face)" stroke="#7a5cff" stroke-width="3"/>
  </g>
  <path d="M110 36 L54 58 V106 C54 140 81 166 110 178 Z" fill="#bcccff" opacity="0.45"/>
  <path d="M110 36 L166 58 V106 C166 140 139 166 110 178 C81 166 54 140 54 106 V58 Z" fill="none" stroke="#7a5cff" stroke-width="3" opacity="0">
    <animate attributeName="opacity" values="0;0.55;0" dur="2.8s" repeatCount="indefinite"/>
  </path>
  <path d="M99 100 V90 a11 11 0 0 1 22 0 V100" fill="none" stroke="#3b6cff" stroke-width="5" stroke-linecap="round"/>
  <rect x="92" y="100" width="36" height="30" rx="6" fill="url(#sh-lock)"/>
  <circle cx="110" cy="112" r="4" fill="#ffffff"/>
  <rect x="108.5" y="114" width="3" height="8" rx="1.5" fill="#ffffff"/>
</svg>
